<?xml version="1.0" standalone="no"?>
<!DOCTYPE svg PUBLIC "-//W3C//DTD SVG 20010904//EN"
 "http://www.w3.org/TR/2001/REC-SVG-20010904/DTD/svg10.dtd">
<svg version="1.0" xmlns="http://www.w3.org/2000/svg"
 width="200.000000pt" height="210.000000pt" viewBox="0 0 960.000000 1010.000000"
 preserveAspectRatio="xMidYMid meet">
 
 <rect width="100%" height="100%" fill="white"/>

<g transform="translate(0.000000,1010.000000) scale(0.100000,-0.100000)"
fill="#000000" stroke="none">
<path d="M0 5050 l0 -5050 4800 0 4800 0 0 5050 0 5050 -4800 0 -4800 0 0
-5050z m4996 3890 c119 -218 129 -240 132 -297 3 -48 -2 -79 -21 -136 -23 -64
-47 -175 -47 -213 0 -13 104 -34 167 -34 22 0 85 14 139 32 93 30 108 31 254
32 96 0 201 -6 275 -16 66 -10 159 -19 207 -20 49 -2 88 -5 88 -7 0 -3 -11
-21 -26 -42 -23 -34 -30 -37 -87 -43 -34 -4 -153 -25 -265 -46 -256 -50 -407
-70 -528 -70 l-94 0 0 -65 0 -64 36 -7 c82 -15 184 1 339 54 83 28 204 65 270
81 207 52 395 117 520 182 141 72 230 97 482 134 98 14 232 35 298 46 162 27
338 49 401 49 50 0 51 -1 63 -37 10 -31 10 -45 -3 -80 -19 -54 -17 -54 111 -7
54 20 118 36 143 37 167 3 375 -267 357 -463 -14 -154 -134 -246 -419 -319
-185 -48 -820 -161 -1288 -230 -358 -53 -409 -58 -700 -76 -270 -16 -352 -25
-484 -57 -74 -17 -96 -27 -129 -57 -29 -28 -38 -42 -33 -57 6 -19 17 -26 123
-79 63 -31 64 -33 72 -99 l6 -51 100 -3 c132 -4 431 13 575 33 63 9 176 32
250 52 74 19 170 45 213 56 75 20 80 20 150 4 40 -10 95 -17 123 -17 27 0 356
61 730 136 592 119 695 137 804 141 197 8 318 -30 428 -132 251 -232 122 -614
-248 -739 -77 -26 -1101 -216 -1270 -236 -159 -19 -494 -29 -930 -30 -228 0
-476 -5 -550 -10 -147 -11 -340 -37 -359 -50 -10 -5 -10 -17 -1 -51 17 -63 25
-69 91 -69 l59 0 0 -35 c0 -27 -51 -247 -76 -329 -6 -18 0 -19 152 -12 88 4
306 20 485 36 180 17 419 34 532 40 213 10 265 17 332 46 30 13 71 18 160 19
126 2 146 6 833 171 196 47 238 45 357 -16 85 -42 86 -43 79 -74 -15 -73 -104
-326 -127 -362 -48 -77 -134 -109 -567 -215 -135 -32 -288 -73 -340 -91 -110
-36 -210 -83 -210 -100 0 -6 38 -50 84 -98 72 -75 85 -94 94 -137 12 -53 0
-132 -33 -223 -9 -25 -25 -81 -36 -125 -22 -85 -22 -101 0 -360 43 -488 51
-602 51 -758 0 -183 -13 -291 -50 -407 -30 -96 -30 -97 -83 -76 -60 23 -108
77 -159 180 l-41 84 36 94 c51 133 75 233 88 362 13 135 7 238 -32 511 -43
295 -59 439 -59 520 0 139 34 274 95 378 l34 57 -28 0 c-46 0 -178 -28 -286
-60 -176 -53 -326 -89 -485 -117 -147 -27 -169 -28 -430 -26 -424 4 -448 -3
-619 -184 -61 -63 -122 -133 -137 -154 l-27 -39 52 -103 c81 -163 86 -251 21
-382 -39 -79 -70 -110 -194 -195 -58 -39 -121 -89 -141 -112 -132 -146 -80
-285 93 -248 94 20 141 49 206 130 61 75 102 101 178 115 l36 7 8 -59 c4 -32
2 -119 -4 -193 -21 -274 7 -346 363 -930 206 -338 288 -569 301 -845 6 -112 3
-142 -15 -218 -33 -138 -97 -256 -193 -355 -108 -112 -221 -178 -359 -214 -71
-18 -103 -20 -228 -15 -150 5 -215 18 -325 66 -132 58 -281 192 -377 338 -27
42 -49 79 -49 84 0 17 104 -31 204 -94 200 -126 290 -157 460 -157 357 1 578
166 667 500 33 121 33 365 1 492 -45 183 -114 329 -297 638 -152 256 -221 406
-281 609 -3 10 -14 12 -42 7 -211 -36 -314 -33 -408 14 -107 53 -149 140 -142
299 5 139 35 195 190 358 64 68 133 143 153 168 l37 45 -35 47 c-52 72 -78
129 -83 186 -9 91 -12 99 -36 91 -27 -8 -118 -73 -118 -84 0 -7 -53 -30 -69
-30 -4 0 -12 15 -19 33 -6 17 -32 55 -58 82 -46 50 -69 86 -159 246 -48 85
-50 87 -93 93 -25 3 -89 6 -143 6 -128 0 -369 25 -539 56 -261 48 -439 106
-705 229 -218 101 -228 105 -385 161 -242 87 -386 146 -497 205 -137 71 -293
168 -293 180 0 11 77 88 148 147 29 24 52 47 52 51 0 8 -112 -2 -150 -14 -14
-4 -57 -38 -96 -76 -40 -38 -80 -69 -89 -69 -33 0 -199 61 -279 103 -78 40
-216 158 -216 184 0 17 158 91 235 109 50 11 93 14 150 10 104 -8 152 -21 339
-95 157 -62 259 -91 329 -91 21 0 37 5 37 11 0 24 141 1 275 -45 155 -52 173
-56 480 -101 219 -32 246 -39 325 -75 105 -48 103 -48 276 -60 78 -5 201 -19
273 -30 415 -63 545 -42 598 95 27 71 -1 312 -41 341 -9 6 -73 14 -144 18 -70
4 -176 14 -237 23 -60 8 -202 16 -315 18 -219 3 -283 12 -469 64 -184 52 -273
71 -371 77 -90 6 -99 5 -173 -25 -77 -31 -108 -38 -106 -23 1 4 1 40 0 80 l-1
72 -38 0 c-47 0 -28 -6 -459 143 -199 69 -393 142 -430 161 -38 20 -118 75
-178 122 -223 175 -309 235 -388 274 -45 21 -94 42 -110 45 -32 9 -33 12 -4
48 21 25 30 28 113 33 49 3 139 7 199 8 114 2 156 15 224 67 23 18 24 18 65
-7 77 -47 124 -62 327 -104 173 -36 231 -43 385 -50 188 -8 213 -14 247 -56
10 -13 48 -38 85 -56 l67 -33 230 -2 c324 -2 403 -9 541 -43 158 -39 251 -56
409 -76 152 -18 600 -30 730 -19 l90 7 -83 42 c-77 38 -82 43 -77 66 22 84 35
162 35 210 l0 56 -347 28 c-192 16 -411 30 -488 31 -77 1 -159 7 -181 13 -49
14 -90 44 -96 70 -8 31 16 87 60 139 23 26 38 50 34 54 -16 14 -180 77 -417
159 -137 48 -332 120 -432 159 -228 88 -245 91 -315 57 -53 -26 -230 -57 -244
-43 -11 11 17 76 37 82 17 6 69 63 69 77 0 3 -46 8 -103 11 -177 12 -326 58
-429 133 -58 43 -135 141 -122 154 17 16 188 78 252 91 51 10 83 9 161 -1 123
-16 168 -7 286 61 47 27 94 49 104 49 11 0 57 -14 103 -30 46 -17 115 -42 153
-56 39 -14 349 -80 705 -149 349 -69 703 -138 785 -156 184 -38 320 -38 392
-1 88 46 116 94 162 277 51 206 121 592 121 671 0 16 4 24 8 19 5 -6 67 -116
138 -245z m-4008 -3934 c121 -127 136 -236 64 -444 -24 -68 -45 -151 -48 -185
-4 -40 5 -156 25 -322 45 -379 56 -584 42 -758 -14 -188 -62 -377 -95 -377
-25 0 -134 59 -163 89 -67 66 -67 145 -2 347 36 111 42 145 46 244 6 134 -7
316 -43 585 -14 105 -28 264 -31 355 -5 160 -4 169 26 281 16 64 44 149 62
188 37 82 37 82 117 -3z m530 17 c115 -109 139 -220 86 -399 -77 -257 -78
-289 -29 -680 44 -355 56 -540 45 -671 -16 -179 -54 -284 -131 -359 l-38 -37
-11 29 c-20 54 -34 75 -87 127 -29 28 -58 67 -64 85 -17 53 -3 118 41 192 71
118 74 132 73 345 -1 187 -20 440 -49 645 -8 58 -17 186 -21 285 -5 162 -4
188 16 265 20 80 85 230 101 230 4 0 34 -26 68 -57z m6230 -17 c115 -121 132
-216 74 -418 -68 -238 -69 -430 -4 -808 22 -129 43 -278 47 -331 8 -117 -8
-261 -41 -379 -25 -86 -68 -190 -79 -190 -12 0 -87 52 -127 88 -89 80 -97 157
-40 356 l37 131 -1 250 c0 218 -5 286 -34 525 -38 323 -44 517 -17 620 18 69
92 230 106 230 5 0 40 -33 79 -74z m-5207 -55 c16 -24 40 -80 54 -125 52 -161
67 -196 84 -196 28 0 136 56 218 113 43 30 96 64 119 75 53 27 151 52 202 52
l41 0 -6 -72 c-6 -78 -36 -243 -77 -423 -62 -271 -95 -717 -77 -1048 28 -527
115 -849 292 -1087 84 -113 152 -184 248 -255 370 -278 834 -252 1151 65 86
86 130 148 188 265 37 74 87 214 79 221 -2 2 -57 -25 -123 -61 -215 -116 -384
-154 -634 -142 -264 12 -457 101 -637 291 -180 190 -315 461 -367 735 -38 197
-4 348 97 437 47 41 123 74 171 74 26 0 28 2 22 28 -4 15 -21 50 -39 77 -28
44 -31 58 -32 124 l0 74 150 78 c223 116 315 133 369 68 88 -104 25 -212 -181
-314 l-93 -47 21 -30 c12 -17 49 -51 83 -77 33 -25 77 -61 99 -80 78 -69 121
-178 121 -306 0 -100 -30 -170 -104 -239 -46 -43 -138 -96 -167 -96 -27 0
-100 172 -88 209 3 10 42 56 88 103 82 84 93 103 112 196 l7 32 -57 0 c-61 0
-111 17 -162 56 -36 27 -37 27 -48 -40 -8 -48 -44 -86 -84 -86 -39 0 -86 -48
-120 -120 -70 -153 -16 -410 125 -599 116 -156 236 -241 421 -298 80 -24 103
-26 248 -27 185 0 262 16 396 83 219 110 356 282 401 506 l14 66 43 -43 c107
-106 114 -217 30 -465 -16 -48 -29 -95 -29 -104 0 -10 18 -31 39 -49 24 -18
52 -56 70 -92 69 -136 25 -312 -128 -515 -185 -245 -428 -392 -703 -425 -365
-43 -736 178 -1027 611 -222 330 -388 767 -452 1192 -28 188 -31 470 -6 644
10 66 20 172 24 235 3 63 10 123 15 134 17 31 -4 40 -64 26 -71 -17 -111 -58
-134 -135 -17 -62 -17 -48 2 -481 7 -150 -2 -220 -48 -363 -67 -211 -178 -371
-296 -427 -56 -26 -137 -23 -197 8 -122 63 -261 265 -335 486 -38 116 -45 189
-27 278 38 180 154 330 437 569 271 230 288 258 236 397 -31 82 -56 212 -56
291 l0 60 26 -24 c15 -13 40 -44 55 -68z m3661 -238 c58 -60 81 -123 80 -218
0 -44 -8 -125 -17 -180 -66 -408 8 -870 202 -1255 86 -172 172 -294 285 -408
289 -291 594 -374 920 -252 67 25 197 107 251 159 80 75 122 149 184 326 19
55 42 112 50 128 16 32 82 107 93 107 4 0 10 -17 12 -37 3 -21 13 -81 23 -133
15 -82 16 -109 6 -201 -20 -189 -74 -312 -187 -425 -78 -79 -186 -140 -304
-171 -93 -25 -329 -25 -425 1 -545 145 -1095 836 -1260 1581 -41 185 -44 195
-63 195 -10 0 -62 -11 -116 -25 -126 -32 -298 -35 -361 -6 -94 43 -141 133
-132 250 17 225 216 407 471 428 l69 6 -8 -39 c-10 -58 -53 -142 -81 -161 -14
-9 -74 -29 -134 -44 -140 -36 -152 -42 -144 -77 10 -45 50 -125 74 -151 34
-35 101 -61 173 -68 112 -10 175 34 201 142 5 17 7 116 7 222 -1 193 9 310 30
357 12 25 12 25 38 6 14 -10 43 -36 63 -57z m-1857 -371 c37 -20 56 -39 73
-72 27 -53 25 -97 -13 -238 -56 -208 -60 -247 -59 -566 l1 -299 -31 37 c-47
57 -105 155 -119 201 -8 27 -12 116 -11 275 0 199 4 253 22 350 12 63 30 166
39 228 20 127 20 127 98 84z"/>
<path d="M4809 8368 l-84 -453 0 -295 c1 -387 18 -483 112 -632 17 -26 16 -28
-55 -175 -48 -99 -80 -180 -97 -245 -13 -54 -42 -138 -64 -188 -32 -70 -41
-102 -41 -144 0 -30 5 -58 10 -61 6 -4 10 -73 10 -174 0 -152 -2 -173 -24
-227 -58 -150 -66 -300 -23 -440 47 -153 50 -180 27 -282 -11 -51 -20 -113
-20 -138 l0 -46 104 7 103 7 23 -38 c62 -103 137 -196 183 -228 l50 -35 97 85
c114 98 176 174 196 240 8 28 14 91 14 155 0 59 7 190 16 291 21 234 15 428
-14 511 -12 32 -18 65 -15 72 3 8 -7 29 -21 46 l-26 31 1 286 1 287 -33 95
c-30 91 -41 188 -28 255 3 15 -11 27 -71 60 l-75 40 -3 187 -2 186 -49 7 c-60
8 -108 37 -122 72 -11 29 -9 43 26 238 47 251 58 361 51 500 -5 110 -3 145 15
225 44 200 39 249 -28 321 -25 27 -49 49 -52 49 -4 0 -45 -204 -92 -452z"/>
<path d="M2528 4065 c-71 -26 -154 -89 -258 -194 -260 -263 -346 -556 -187
-637 52 -27 146 -30 193 -6 106 54 187 199 248 447 42 168 70 406 49 404 -5 0
-25 -6 -45 -14z"/>
</g>
</svg>
